#!OML:ASF E:\Steps\Project 1\Capture day 1\Session 2\Subject.ASF
:FULLY-SPECIFIED
:DEGREES
458
root 11.9038 18.8158 16.7571 -152.167 1.26656 177.55
lowerback -31.6113 -3.48801 -7.59323
upperback -3.35404 -0.442677 -1.02396
thorax 12.7385 -0.00017075 2.92121
lowerneck -4.08402 -2.64626 0.0600442
upperneck -3.55293 -3.2355 4.57078
head -0.335276 -1.52794 1.36393
rclavicle -1.2921e-015 -1.90833e-014
rhumerus -37.372 -17.1036 -78.5132
rradius 28.7674
rwrist -0.248685
rhand -9.42126 -412.05
rfingers 7.12502
rthumb -163.459 98.6349
lclavicle -1.2921e-015 -1.90833e-014
lhumerus -32.2734 2.8095 81.8469
lradius 20.8712
lwrist -2.28061
lhand -23.2511 -12.0302
lfingers 7.12502
lthumb 3.20057 17.9255
rfemur -24.39 6.03081 17.1261
rtibia 5.49763
rfoot -16.2082 0.961702
rtoes -8.08399
lfemur -22.6167 -6.33667 -25.4511
ltibia 6.24594
lfoot -7.91771 0.728426
ltoes -34.6158
459
root 11.9068 18.8158 16.752 -152.19 1.2044 177.452
lowerback -31.6037 -3.50803 -7.64226
upperback -3.33512 -0.458071 -1.00341
thorax 12.7584 -0.0125368 2.9632
lowerneck -4.16289 -2.76823 0.149004
upperneck -3.65227 -3.39733 4.43985
head -0.353054 -1.60864 1.30555
rclavicle -1.88845e-015 -2.14687e-014
rhumerus -37.3469 -16.8446 -78.5242
rradius 28.8938
rwrist -0.436966
rhand -9.54979 -411.55
rfingers 7.12502
rthumb -163.583 99.1248
lclavicle -1.88845e-015 -2.14687e-014
lhumerus -32.2303 2.98016 81.8726
lradius 20.8649
lwrist -2.28031
lhand -23.1191 -12.1355
lfingers 7.12502
lthumb 3.32807 17.8183
rfemur -24.2918 6.18986 16.993
rtibia 5.45833
rfoot -16.3157 0.733223
rtoes -8.13552
lfemur -22.6589 -6.63281 -25.5035
ltibia 6.46701
lfoot -8.10825 0.855457
ltoes -34.5509
460
root 11.9123 18.8204 16.7443 -152.391 1.02026 177.347
lowerback -31.2607 -3.53806 -7.70121
upperback -3.37778 -0.521777 -0.999952
thorax 12.5707 -0.0402921 2.97676
lowerneck -4.33966 -2.82552 0.316612
upperneck -3.40447 -3.50938 4.12938
head -0.254514 -1.66608 1.17344
rclavicle 1.88845e-015 3.49861e-014
rhumerus -37.4429 -16.6865 -78.5197
rradius 29.0284
rwrist -0.533937
rhand -9.68016 -411.401
rfingers 7.12502
rthumb -163.708 99.2636
lclavicle 1.88845e-015 3.49861e-014
lhumerus -32.285 3.09903 81.8684
lradius 20.8224
lwrist -2.30315
lhand -23.0311 -12.2071
lfingers 7.12502
lthumb 3.41304 17.7453
rfemur -23.9229 6.34266 16.9046
rtibia 5.30738
rfoot -16.3836 0.408553
rtoes -7.95664
lfemur -22.488 -6.67442 -25.5928
ltibia 6.65284
lfoot -8.17851 0.712721
ltoes -35.1074
461
root 11.9185 18.8253 16.737 -152.55 0.758529 177.21
lowerback -30.8696 -3.60858 -7.76246
upperback -3.49677 -0.62425 -1.02767
thorax 12.2791 -0.0721733 2.94509
lowerneck -4.11942 -2.71395 0.0537383
upperneck -3.65071 -3.32256 4.45076
head -0.359515 -1.57155 1.32665
rclavicle -2.08724e-015 -2.38542e-014
rhumerus -37.6489 -16.5035 -78.5575
rradius 29.1188
rwrist -0.615166
rhand -9.58793 -412.082
rfingers 7.12502
rthumb -163.62 98.5898
lclavicle -2.08724e-015 -2.38542e-014
lhumerus -32.3778 3.20494 81.7734
lradius 20.6764
lwrist -2.45825
lhand -23.0235 -12.3524
lfingers 7.12502
lthumb 3.42039 17.5999
rfemur -23.5655 6.63559 16.7532
rtibia 5.11518
rfoot -16.4213 -0.214537
rtoes -7.71604
lfemur -22.3378 -6.55532 -25.7277
ltibia 6.75857
lfoot -8.1098 0.372332
ltoes -35.8215
462
root 11.9236 18.8261 16.7293 -152.585 0.558932 177.189
lowerback -30.6973 -2.15241 -8.56826
upperback -3.56607 -1.05505 -1.1449
thorax 12.0449 -1.37545 2.86343
lowerneck -3.96368 -2.63839 -0.0452332
upperneck -3.8013 -3.20268 4.57736
head -0.430514 -1.51255 1.38854
rclavicle 7.50412e-015 7.95139e-016
rhumerus -37.8079 -16.6871 -78.4944
rradius 29.0616
rwrist -0.380043
rhand -9.43994 -412.972
rfingers 7.12502
rthumb -163.477 97.7112
lclavicle 7.50412e-015 7.95139e-016
lhumerus -32.4967 3.01235 81.7328
lradius 20.6676
lwrist -2.37
lhand -23.0122 -12.261
lfingers 7.12502
lthumb 3.43133 17.6911
rfemur -23.3704 6.72038 16.7669
rtibia 4.94815
rfoot -16.3667 -0.517157
rtoes -7.91375
lfemur -22.2895 -6.50296 -25.7171
ltibia 6.77897
lfoot -8.02611 0.158394
ltoes -36.5603
463
root 11.928 18.8247 16.7231 -152.615 0.396739 177.346
lowerback -30.6957 -2.09611 -8.36877
upperback -3.57816 -1.04876 -1.11391
thorax 12.0332 -1.36168 2.79428
lowerneck -3.94579 -2.62946 -0.110015
upperneck -4.05527 -3.16442 4.63685
head -0.510707 -1.49125 1.42175
rclavicle -8.05078e-015 3.57812e-014
rhumerus -37.7085 -17.1593 -78.2954
rradius 28.798
rwrist 0.0972106
rhand -9.2717 -413.246
rfingers 7.12502
rthumb -163.315 97.4507
lclavicle -8.05078e-015 3.57812e-014
lhumerus -32.5351 2.77909 81.7643
lradius 20.7583
lwrist -2.13792
lhand -23.0158 -12.1422
lfingers 7.12502
lthumb 3.4278 17.81
rfemur -23.2542 6.59689 17.0463
rtibia 4.87526
rfoot -16.3012 -0.423724
rtoes -8.07168
lfemur -22.2617 -6.46813 -25.5016
ltibia 6.81571
lfoot -8.01154 0.0698961
ltoes -37.2673
